HIERARCHY
ROOT Hips
{
	OFFSET -14.64140 90.27770 -84.91600
	CHANNELS 6 Xposition Yposition Zposition Zrotation Xrotation Yrotation
	JOINT Spine
	{
		OFFSET 0.00000 13.20850 -1.60436
		CHANNELS 3 Zrotation Xrotation Yrotation
		JOINT Spine1
		{
			OFFSET 0.00000 8.61716 0.00000
			CHANNELS 3 Zrotation Xrotation Yrotation
			JOINT Spine2
			{
				OFFSET 0.00000 8.61717 0.00000
				CHANNELS 3 Zrotation Xrotation Yrotation
				JOINT Spine3
				{
					OFFSET 0.00000 8.61717 0.00000
					CHANNELS 3 Zrotation Xrotation Yrotation
					JOINT Neck
					{
						OFFSET 0.00000 11.07920 1.10792
						CHANNELS 3 Zrotation Xrotation Yrotation
						JOINT Neck1
						{
							OFFSET 0.00000 7.08032 0.00000
							CHANNELS 3 Zrotation Xrotation Yrotation
							JOINT Head
							{
								OFFSET 0.00000 7.08031 0.00000
								CHANNELS 3 Zrotation Xrotation Yrotation
								End site
								{
									OFFSET 0.00000 0.00000 0.00000
								}
							}
						}
					}
					JOINT RightShoulder
					{
						OFFSET -0.01000 7.91373 5.19711
						CHANNELS 3 Zrotation Xrotation Yrotation
						JOINT RightArm
						{
							OFFSET -18.41580 0.00000 0.00000
							CHANNELS 3 Zrotation Xrotation Yrotation
							JOINT RightForeArm
							{
								OFFSET -29.11090 0.00000 0.00000
								CHANNELS 3 Zrotation Xrotation Yrotation
								JOINT RightHand
								{
									OFFSET -24.65040 0.00000 0.00000
									CHANNELS 3 Zrotation Xrotation Yrotation
									JOINT RightHandThumb1
									{
										OFFSET -5.35114 -0.85590 3.97906
										CHANNELS 3 Zrotation Xrotation Yrotation
										JOINT RightHandThumb2
										{
											OFFSET -4.52789 0.00000 0.00000
											CHANNELS 3 Zrotation Xrotation Yrotation
											JOINT RightHandThumb3
											{
												OFFSET -2.46976 0.00000 0.00000
												CHANNELS 3 Zrotation Xrotation Yrotation
												End site
												{
													OFFSET 0.00000 0.00000 0.00000
												}
											}
										}
									}
									JOINT RightHandIndex1
									{
										OFFSET -14.26970 0.00000 2.88139
										CHANNELS 3 Zrotation Xrotation Yrotation
										JOINT RightHandIndex2
										{
											OFFSET -5.48836 0.00000 0.00000
											CHANNELS 3 Zrotation Xrotation Yrotation
											JOINT RightHandIndex3
											{
												OFFSET -3.01859 0.00000 0.00000
												CHANNELS 3 Zrotation Xrotation Yrotation
												End site
												{
													OFFSET 0.00000 0.00000 0.00000
												}
											}
										}
									}
									JOINT RightHandMiddle1
									{
										OFFSET -14.26970 0.00000 -0.09147
										CHANNELS 3 Zrotation Xrotation Yrotation
										JOINT RightHandMiddle2
										{
											OFFSET -6.17441 0.00000 0.00000
											CHANNELS 3 Zrotation Xrotation Yrotation
											JOINT RightHandMiddle3
											{
												OFFSET -3.56743 0.00000 0.00000
												CHANNELS 3 Zrotation Xrotation Yrotation
												End site
												{
													OFFSET 0.00000 0.00000 0.00000
												}
											}
										}
									}
									JOINT RightHandRing1
									{
										OFFSET -12.69180 0.00000 -3.06433
										CHANNELS 3 Zrotation Xrotation Yrotation
										JOINT RightHandRing2
										{
											OFFSET -5.62556 0.00000 0.00000
											CHANNELS 3 Zrotation Xrotation Yrotation
											JOINT RightHandRing3
											{
												OFFSET -3.56744 0.00000 0.00000
												CHANNELS 3 Zrotation Xrotation Yrotation
												End site
												{
													OFFSET 0.00000 0.00000 0.00000
												}
											}
										}
									}
									JOINT RightHandPinky1
									{
										OFFSET -11.11390 0.00000 -6.03719
										CHANNELS 3 Zrotation Xrotation Yrotation
										JOINT RightHandPinky2
										{
											OFFSET -4.52789 0.00000 0.00000
											CHANNELS 3 Zrotation Xrotation Yrotation
											JOINT RightHandPinky3
											{
												OFFSET -2.46976 0.00000 0.00000
												CHANNELS 3 Zrotation Xrotation Yrotation
												End site
												{
													OFFSET 0.00000 0.00000 0.00000
												}
											}
										}
									}
								}
							}
						}
					}
					JOINT LeftShoulder
					{
						OFFSET 0.01000 7.91373 5.19711
						CHANNELS 3 Zrotation Xrotation Yrotation
						JOINT LeftArm
						{
							OFFSET 18.41580 0.00000 0.00000
							CHANNELS 3 Zrotation Xrotation Yrotation
							JOINT LeftForeArm
							{
								OFFSET 29.11090 0.00000 0.00000
								CHANNELS 3 Zrotation Xrotation Yrotation
								JOINT LeftHand
								{
									OFFSET 24.65040 0.00000 0.00000
									CHANNELS 3 Zrotation Xrotation Yrotation
									JOINT LeftHandThumb1
									{
										OFFSET 5.35114 -0.85590 3.97906
										CHANNELS 3 Zrotation Xrotation Yrotation
										JOINT LeftHandThumb2
										{
											OFFSET 4.52789 0.00000 0.00000
											CHANNELS 3 Zrotation Xrotation Yrotation
											JOINT LeftHandThumb3
											{
												OFFSET 2.46977 0.00000 0.00000
												CHANNELS 3 Zrotation Xrotation Yrotation
												End site
												{
													OFFSET 0.00000 0.00000 0.00000
												}
											}
										}
									}
									JOINT LeftHandIndex1
									{
										OFFSET 14.26970 0.00000 2.88139
										CHANNELS 3 Zrotation Xrotation Yrotation
										JOINT LeftHandIndex2
										{
											OFFSET 5.48836 0.00000 0.00000
											CHANNELS 3 Zrotation Xrotation Yrotation
											JOINT LeftHandIndex3
											{
												OFFSET 3.01859 0.00000 0.00000
												CHANNELS 3 Zrotation Xrotation Yrotation
												End site
												{
													OFFSET 0.00000 0.00000 0.00000
												}
											}
										}
									}
									JOINT LeftHandMiddle1
									{
										OFFSET 14.26970 0.00000 -0.09147
										CHANNELS 3 Zrotation Xrotation Yrotation
										JOINT LeftHandMiddle2
										{
											OFFSET 6.17440 0.00000 0.00000
											CHANNELS 3 Zrotation Xrotation Yrotation
											JOINT LeftHandMiddle3
											{
												OFFSET 3.56744 0.00000 0.00000
												CHANNELS 3 Zrotation Xrotation Yrotation
												End site
												{
													OFFSET 0.00000 0.00000 0.00000
												}
											}
										}
									}
									JOINT LeftHandRing1
									{
										OFFSET 12.69180 0.00000 -3.06433
										CHANNELS 3 Zrotation Xrotation Yrotation
										JOINT LeftHandRing2
										{
											OFFSET 5.62556 0.00000 0.00000
											CHANNELS 3 Zrotation Xrotation Yrotation
											JOINT LeftHandRing3
											{
												OFFSET 3.56744 0.00000 0.00000
												CHANNELS 3 Zrotation Xrotation Yrotation
												End site
												{
													OFFSET 0.00000 0.00000 0.00000
												}
											}
										}
									}
									JOINT LeftHandPinky1
									{
										OFFSET 11.11390 0.00000 -6.03719
										CHANNELS 3 Zrotation Xrotation Yrotation
										JOINT LeftHandPinky2
										{
											OFFSET 4.52789 0.00000 0.00000
											CHANNELS 3 Zrotation Xrotation Yrotation
											JOINT LeftHandPinky3
											{
												OFFSET 2.46976 0.00000 0.00000
												CHANNELS 3 Zrotation Xrotation Yrotation
												End site
												{
													OFFSET 0.00000 0.00000 0.00000
												}
											}
										}
									}
								}
							}
						}
					}
					JOINT pCube4
					{
						OFFSET 0.00000 10.91090 1.10792
						CHANNELS 3 Zrotation Xrotation Yrotation
						End site
						{
							OFFSET 0.00000 0.00000 0.00000
						}
					}
				}
			}
		}
	}
	JOINT RightUpLeg
	{
		OFFSET -9.98441 0.00000 0.00000
		CHANNELS 3 Zrotation Xrotation Yrotation
		JOINT RightLeg
		{
			OFFSET 0.00000 -42.11790 0.00000
			CHANNELS 3 Zrotation Xrotation Yrotation
			JOINT RightFoot
			{
				OFFSET 0.00000 -45.00020 -0.00001
				CHANNELS 3 Zrotation Xrotation Yrotation
				JOINT RightForeFoot
				{
					OFFSET 0.00000 -3.74820 0.00000
					CHANNELS 3 Zrotation Xrotation Yrotation
					JOINT RightToeBase
					{
						OFFSET 0.00000 0.06325 14.43120
						CHANNELS 3 Zrotation Xrotation Yrotation
						End site
						{
							OFFSET 0.00000 0.00000 0.00000
						}
					}
				}
			}
		}
	}
	JOINT LeftUpLeg
	{
		OFFSET 9.98441 0.00000 0.00000
		CHANNELS 3 Zrotation Xrotation Yrotation
		JOINT LeftLeg
		{
			OFFSET 0.00000 -42.11800 0.00000
			CHANNELS 3 Zrotation Xrotation Yrotation
			JOINT LeftFoot
			{
				OFFSET 0.00000 -45.00070 0.00000
				CHANNELS 3 Zrotation Xrotation Yrotation
				JOINT LeftForeFoot
				{
					OFFSET 0.00000 -3.74824 0.00000
					CHANNELS 3 Zrotation Xrotation Yrotation
					JOINT LeftToeBase
					{
						OFFSET 0.00000 0.06325 14.43110
						CHANNELS 3 Zrotation Xrotation Yrotation
						End site
						{
							OFFSET 0.00000 0.00000 0.00000
						}
					}
				}
			}
		}
	}
}
MOTION
Frames: 4
Frame Time: 0.050000
0.007411486840800278 -0.04296110988650839 -0.02805711343628825 0.02584870034461428 -0.03748972971241784 -0.009774472531618929 -3.9177465708101376 -0.20671205779219295 -0.6619847093670345 -0.9195993235508932 3.5103695814164397 0.3721838271466063 -1.4436594388202204 -2.3054537491956637 -0.879910632767781 -0.5180607605761607 0.04998251464373231 -0.7640613962342334 0.4208285372026582 12.791693833417824 0.2020891907215463 0.11393424157823819 -0.047645777771392665 -1.1558368731565045 0.2195710646667243 -14.884214832369807 -0.047155991625734146 -6.890593123165178 2.5122318595555737 -13.801439022469776 68.4797563356843 0.15387866889547058 23.192586981378643 41.9682264888394 10.985805747434522 92.24320281228819 23.430099201293142 -0.4351698270380458 -5.473792755114809 4.521447972661109 -0.1303466741722416 -1.6174441439395366 -0.010518387715266371 0.007858226387480662 -56.2058527145201 0.03151963810283818 0.001300766602661955 -56.217084105581904 -38.767656304804056 0.016360856990906107 -0.010362353579966156 -0.02735360077022396 -0.008638292459684702 0.016404532662151423 -1.7847272894193148e-05 0.029976910980480644 0.012463687399390836 -36.69242292473547 0.04298279241914108 -0.003032249480758691 -0.03346307798393094 0.0058111700536449705 -0.008450918956748134 -0.03342737955894077 0.025306456132654212 -0.024582533651199577 -19.780193274957924 -0.045063770250987956 0.03941955346656429 -0.03325120764744827 0.022655621431872938 0.047716151770898 -0.018366119918909043 0.02311611191788504 0.0007577553595132533 24.056439160085063 -0.0448233962106546 0.005601700301438145 28.84429561623751 0.04960854233443538 0.001409328858524386 28.89060052233057 -0.04558703047248512 0.03178408352773486 4.989485392944798 1.3024405777941066 11.546027448309463 -67.9184086418254 28.36735647263673 -7.204346424438651 -2.6834772475699893 -2.61861862050418 -49.08260762957831 -15.779436428969355 3.239893308180113 0.9211868795439758 -0.4677685854465917 0.0659493329770284 -8.172454790822359 0.02511425369759766 -0.016999067294885886 44.55597167301104 -0.04165235493877715 -0.035384816886786435 44.60485519844914 12.472364197900092 -0.04805909331600727 -0.041664564149051085 -0.010954992139464726 -0.036291259162205235 -0.03496998120542085 -0.0031040115644811826 0.016026387150296945 0.005380501195020968 11.13570773069915 0.026290142955611127 -0.026924100684936336 -0.007542550735424 -0.01021168488889713 -0.005590719444447701 -0.02013639830059865 -0.006651376017061047 -0.020253841715683174 4.733301881966727 0.014701824183390905 -0.0390528737048479 -0.010759508579299137 0.024379375444302565 -0.036157723128445556 -0.004080087719687608 0.04016619555795241 0.042661885069533154 -5.6271478082778135 0.003951168607154248 0.0012527416497841468 -6.732571146444211 0.029672910764885357 0.014477216006210191 -6.7699508343109684 -0.01934162310823966 0.029270205359059564 0.026922054387218414 -0.005624511201945644 0.017699638152360114 8.075212367300512 3.459700826282665 -19.222197244320597 0.013325115860579655 10.35631297826148 0.006147032837560712 -5.619968684223627 -15.703489601652679 3.1909976526784094 0.013131452077288263 0.03815203485572315 -0.010547718843126762 -0.04204850089484336 4.671398281424711 0.04608477875483418 12.490735507531088 -8.280982578877705 6.906311298687184 0.042172057482103835 46.344088811281 -0.01968646456919809 -4.328221892311428 -14.790085768035452 -3.8153005437162943 0.009548161868887966 -0.03880510097222244 0.009752504011235105 -0.02409131741346135 -10.71597346317189 0.009501662651311369 
-0.022468107523554423 0.005036128993796671 0.008304509352408944 0.044327682439001474 -0.0038763239830862297 0.03901024572373039 -3.88660460471137 -0.345928143533003 -0.6602741977828641 -0.9196253453651745 3.4929711598033593 0.35261692312922244 -1.4081068667470933 -2.2876443450814676 -0.8599148587560872 -0.48562344932046747 0.022102570934754574 -0.85075511640563 0.4695079631307144 12.692410919128134 0.04438897729119422 0.1743539633183836 0.031479072670312414 -1.4402006810356105 0.16487104901688424 -14.783971405608076 -0.08348812473264214 -6.81840576856398 2.450178280053731 -13.993998378981642 68.07212266823956 -0.5551028111869151 22.35045904308837 43.03508611799291 11.02682264984213 91.74090219200065 22.981641048260688 -0.4158693138779519 -5.437319750872855 4.534108112370753 -0.11545985922071464 -1.5754231677956716 -0.028991404022657343 -0.0253180925053204 -56.24363300743542 -0.010209766244850503 0.007809282047714879 -56.232234319614285 -38.77893160808869 0.0056554875552521046 -0.004365241646638033 0.019873520700233162 -0.023445568972763994 0.0018196279624936888 -0.02732099807271768 -0.04817795987309176 0.03793249338701886 -36.7146108920387 -0.011552774058366154 -0.044602843346728524 0.03840718974308663 0.04977726886503585 -0.012789440395429775 0.03186129592900979 0.021086626459785453 -0.03788924077741111 -19.766018331848247 0.026514054479681356 -0.026807386041331465 -0.03480907991112362 0.01716300937891804 -0.01027844563506416 0.032877211650151145 -0.03213185955689276 0.019382800242187918 24.042308104776943 -0.014691212886000773 -0.034098482112965366 28.872119404899703 0.008201748887750252 -0.024505061964724652 28.851974761050663 0.00958602709922055 -0.02064340931007461 4.730376168051747 1.189789394287181 11.614728177252216 -68.79252883649684 28.421393552697783 -5.59102284552336 -2.9122987843476276 -2.740858349634569 -46.67737267446826 -15.499235557210374 3.979718751260824 0.3363545288046277 -0.47706602549300015 0.1016085189622077 -8.112066508084492 -0.03867779687300517 -0.007175317778339092 44.54009628043521 -0.00340006904116732 -0.006086133403090367 44.57124400579631 12.4388547201909 0.031198454957636273 -0.03826362252855194 0.03269656211390605 0.005732399414005661 0.03855517349937235 -0.040105020998766915 0.03323391252150357 -0.01619873326038936 11.065502074066876 -0.04597862514476817 -0.00422276863250076 -0.04600792498994219 0.021208186423268757 -0.03678646805159586 0.0037573835115843075 0.0033113374594395993 0.008782424584481873 4.768348397614298 -0.006462393727703874 0.039164440344294456 -0.02468809563019131 -0.0009675288471389636 -0.04820699102452778 -0.011073302410079732 -0.002509069070656929 -0.0005366218764645464 -5.615435012111878 -0.024925871341155564 -0.008359850695975956 -6.695398832798676 0.01477068057363903 0.014959910281172214 -6.758361806782104 0.020980510018383892 0.02138675298038345 -0.008518909116232954 -0.006006531379740839 0.04244062264732251 8.03873970011905 3.4738574937966487 -19.23783648285625 -0.04697410378714369 10.363724484932682 0.021611630939247062 -5.653400306033359 -15.655824084524838 3.232792723108305 0.012901377816554606 0.03973999465426201 -0.025027202147313497 0.007818911815667606 4.677562406377696 -0.008279267869187179 12.411181125902761 -8.26670586764041 6.852263987551856 -0.03104528048151028 46.38908291740244 -0.006723181966966699 -4.304186169488344 -14.765325339813163 -3.8148603139004282 0.017147740189578778 0.04991716868627284 0.005360679494184063 0.046389492725326 -10.735180616259361 -0.004337282471411656 
-0.0470789143254807 -0.028791911186038705 -0.018978710721622313 0.02436915313932431 0.02757806242201933 -0.045833200605986675 -3.8944136412937196 -0.5871070481816718 -0.6845961252167758 -0.9705151242627319 3.492022510711499 0.40044212504177173 -1.421865643690881 -2.3283743707315225 -0.8515760815685847 -0.438068924047255 0.07401243533910001 -0.8294122173748801 0.5865983926507898 12.753048870686131 -0.016259552254614063 0.14092726909123413 0.041817862699191105 -1.6169373093977104 0.2128247550924024 -14.781153495726935 -0.11517069039281323 -6.8094339753657795 2.4163896170544334 -14.151777170906204 67.61479242548614 -1.2539531047224508 21.41658392016103 43.471570772431434 11.168734943200516 91.0947978078638 22.643654771301208 -0.4034913923822853 -5.495990860217345 4.5099176065979005 -0.15482889443292253 -1.641041993889051 -0.023791692159851004 0.008211269466143298 -56.22245015166533 0.019700810617986873 0.01362383248009981 -56.23858333259209 -38.768413446176915 0.004061517043938637 0.035549084861909636 0.0420131108417607 0.008582911379200586 -0.04052895363945551 -0.006846446487090692 0.03641312034072938 0.02073178007523689 -36.68748416214249 0.04262288517815433 -0.013048139347479842 -0.03112834572636201 -0.0488380250876807 -0.03653741449400948 0.005865329340974903 -0.03999891811577213 0.027531801683324402 -19.77989309736049 0.026317497731020878 0.04057999122985569 0.02768728553427736 0.025776890485755412 -0.0020381882112787196 -0.03196758757785386 0.02474652573369686 0.0009275106142097737 24.06840265135281 0.01142407508291791 -0.026920866892348422 28.860418775925112 -0.02207677970060394 0.007644625025450127 28.876480532362777 -0.0330301541500489 0.012861266262091617 4.443990532331034 1.1765139209209325 11.714341623259205 -69.15723353165707 28.484389640377227 -4.575307269828195 -3.0994417624248185 -2.8554610604555655 -44.92965326417835 -15.318080971583797 4.341171009944217 0.006019811082379406 -0.48622424497180733 0.086352513252271 -8.135924426817649 -0.04475741568045829 0.04900584056004556 44.53872855588092 0.023461685787997254 -0.02315735260386288 44.55426651364388 12.437229748696408 0.020738274227313756 0.028999053773679073 0.023667281973182026 0.021827690532767726 0.004510318559755767 -0.00857189714407117 -0.048328181416004555 -0.042506142853225314 11.140012440217907 -0.034741031070077734 -0.016843654632746723 -0.019534848117053544 -0.02372438255379181 0.04678017128531605 0.03782628010164105 0.03454411175268934 0.035833692239888644 4.7362835327964214 -0.022908034619834573 -0.0009366616752025825 0.04727436931296625 -0.0011754202071353698 0.02531389125717057 0.013690453667392802 -0.008292641739506695 0.009450776165972929 -5.612969484460759 -0.03359721767139426 0.02000582419079698 -6.757945224061756 -0.04833055106714438 0.03998751378214385 -6.75805989532671 -0.025636407256247024 0.044285908461828116 -0.005780994959533162 -0.02800908664984215 0.01973027729581542 8.005057400626324 3.531950223861086 -19.261673612582705 -0.020093430651791092 10.376031898494302 0.01976824727594423 -5.651397956348358 -15.662861648911116 3.199140396569457 0.03164042181848131 -0.047105143834391 -0.04254592046316337 -0.013035393511434037 4.719473718637185 -0.029613978046197705 12.41370287442899 -8.273300757709904 6.91384374418998 0.04498334646005222 46.37465985163554 0.03785215932555289 -4.279901100929668 -14.72190270919206 -3.8501595030830953 -0.041120525983500765 -0.02754396367294963 0.03392355078424965 -0.016313767865364037 -10.746751301011454 0.013463283754614752 
-0.01302701746604666 -0.012325688893156595 -0.049157591239183694 -0.03630859577302872 0.031235770445004536 -0.0023251458552640187 -3.898382558299666 -0.7132232715273618 -0.6347470772052206 -0.9554703568980053 3.5472374124582737 0.3788964767956921 -1.4279852376057764 -2.351261747856562 -0.8934285657679527 -0.34844933178064386 0.0002701738917612259 -0.8064041946542917 0.5947756143020361 12.73595823423386 -0.04832038980144194 0.2093839343361209 0.06568463852492287 -1.6382401849234798 0.251506432972745 -14.612521481266032 -0.11689687697239569 -6.719160122337584 2.4599701432208287 -14.20787204918249 66.97530769502387 -1.8917387332131228 20.668588236309724 42.80374044481716 10.950556341405823 90.37836418942972 22.266872493094414 -0.42846611203330814 -5.403821985173293 4.566210419269849 -0.09815979457052951 -1.6051627804545123 0.014727752295015622 -0.03926512157943176 -56.195755026423285 -0.01291530845298771 -0.006158750876729777 -56.243913298481814 -38.73723777047012 0.0012694748388491447 0.0026665344692397637 0.026079462362492017 0.010465999052233181 -0.008331337506904717 -0.04656628863042288 -0.01229650560987838 -0.009880176538815705 -36.6701744273083 -0.015398878781759526 0.04266477086839851 0.026853235984716582 -0.031760215131860024 -0.019649004862931214 0.014639062858903346 -0.030692888302663014 0.028047366849713096 -19.793631800755712 -0.008696568123755553 -0.011242573867156646 -0.019268249177811465 0.04724761343928886 -0.014146345825642143 -0.03227170820253396 -0.007103576877476957 -0.03318567163733575 24.068923219150886 -0.010204068314147692 0.00015111543223017343 28.87146906806349 0.0022404213708143066 -0.034386571442766245 28.85913900476394 -0.004027610612032173 -0.04308867314830375 4.350340011853963 1.1296563946062457 11.784951782011083 -69.15531163436202 28.27715131564998 -4.089359858610624 -3.2257998947306485 -3.091496093982052 -44.30795187279548 -15.021176265810583 4.3769462460258595 -0.12488121457405618 -0.4870331754474955 0.046116747896715035 -8.091356992995879 0.017146275280011197 -0.04346384063222563 44.54758684733855 0.020643199701733148 0.0032335476037738454 44.52146529341116 12.50634554990001 -0.017210657345272422 -0.029672953702087796 0.025702869446016824 0.032220252158726634 -0.013901853214637829 -0.012017381205698698 -0.019790890950893765 -0.029355851720638045 11.12647845431925 -0.04244073807655687 0.0407025545922728 0.0027551091006138974 0.01249789333233229 0.030709579845081107 0.006796253700075013 -0.025499424775364075 0.023105285040058612 4.744920874684966 -0.006846575264591903 0.03549043946625782 -0.021450329528732246 -0.040636852364136875 0.034616001233096196 0.04603562009613981 -0.026695497734307228 -0.0010073793818946603 -5.647064677801021 -0.015728258743085394 0.01130383103769852 -6.683093855035936 0.012801864976879195 -0.03894357085692356 -6.721394109838973 0.042196467786816155 -0.02267980991641298 0.033364730723857025 -0.04236794686324821 -0.03439634321783163 8.03809179595653 3.5420069425333747 -19.21176425067757 0.046019296501299066 10.377606078009777 0.02424451521349075 -5.6230507291659135 -15.696610553226034 3.1953399361663046 0.022699712400182936 -0.038457695706676155 0.009919240703709654 0.0010877064060865853 4.660848431500897 0.025608493507508073 12.494855009694701 -8.268727444007855 6.895513250383338 -0.04002153779885949 46.35838924052829 0.030858520628691946 -4.3102813915826586 -14.71981783170418 -3.790485863254042 0.03505317566123795 0.03656570592449282 -0.0038113296211728875 -0.03412129958793372 -10.720088163390136 -0.01635978200874116 
